<svg id="Layer_1" data-name="Layer 1" xmlns="http://www.w3.org/2000/svg" viewBox="0 0 79.73 95.7"><defs><style>.cls-1{fill:none;stroke:#62a8e5;stroke-linecap:round;stroke-linejoin:round;stroke-width:3px;}</style></defs><path class="cls-1" d="M36.55,28.32l-3.48-.71a4.43,4.43,0,0,0-4.18,1.24l-.21.25a4.23,4.23,0,0,0-.86,2.65"/><path class="cls-1" d="M39.87,22.93l7.19-1.18a9.27,9.27,0,0,1,1.58-.13h0a9.13,9.13,0,0,1,7.82,4.12,12.94,12.94,0,0,1,1.8,6.84h0a13.81,13.81,0,0,1-2.05,7.21l-2.06,3.36a12.22,12.22,0,0,0-1.75,5.2,27.93,27.93,0,0,1-4.05,12.06L47,62.63a2,2,0,0,1-1.7.92h0a1.9,1.9,0,0,1-2-1.83V58.2a14.16,14.16,0,0,0-1-5.25l-.55-1.36a2.1,2.1,0,0,0-2-1.29h0a2.12,2.12,0,0,0-2,1.33l-.54,1.48a14.19,14.19,0,0,0-.88,4.9v3.71a1.9,1.9,0,0,1-2,1.83h0a2,2,0,0,1-1.7-.92l-1.37-2.22a27.93,27.93,0,0,1-4.05-12.06,12.22,12.22,0,0,0-1.75-5.2L23.5,39.79a13.81,13.81,0,0,1-2.05-7.21h0a12.88,12.88,0,0,1,1.81-6.85,9.12,9.12,0,0,1,7.82-4.11h0a9.47,9.47,0,0,1,1.59.13l7.19,1.18"/><path class="cls-1" d="M70.2,7.39q.1,21.2.19,42.39c0,9.86-5.8,19.19-15.73,25.29l-14.8,9.09L25.07,75.07C15.14,69,9.34,59.64,9.34,49.78L9.22,7.71a32.34,32.34,0,0,0,17.39-.3,41.71,41.71,0,0,0,11-5.2,4.05,4.05,0,0,1,4.48-.07,45.3,45.3,0,0,0,11,5.27A30.32,30.32,0,0,0,70.2,7.39Z"/><path class="cls-1" d="M39.87,94.2,62.6,78.44s5.75-4.38,7.95-7.25l1.39-1.81a30.68,30.68,0,0,0,4.51-8.3h0a30.48,30.48,0,0,0,1.78-10.27v-6.4"/><path class="cls-1" d="M39.87,94.2,17.13,78.44s-5.75-4.38-7.95-7.25L7.79,69.38a30.68,30.68,0,0,1-4.51-8.3h0A30.48,30.48,0,0,1,1.5,50.81v-6.4"/></svg>