<svg id="Layer_1" data-name="Layer 1" xmlns="http://www.w3.org/2000/svg" viewBox="0 0 106.11 92.67"><defs><style>.cls-1{fill:none;stroke:#62a8e5;stroke-linecap:round;stroke-linejoin:round;stroke-width:3px;}</style></defs><path class="cls-1" d="M35.16,25.62,44,15.2a17.17,17.17,0,0,1,11.33-6"/><path class="cls-1" d="M39.54,29.34l8.53-10A15,15,0,0,1,58,14"/><polyline class="cls-1" points="62.51 48.81 71.34 38.39 81.97 25.86 104.61 24.09 85.25 31.19 69.99 49.18"/><path class="cls-1" d="M67.36,17.66c-7.08-.67-12.47-4.82-12-9.26S61.82.92,68.9,1.59s12.46,4.83,12,9.27S74.43,18.34,67.36,17.66Z"/><path class="cls-1" d="M16.84,21.52h8.35a2.12,2.12,0,0,1,2.12,2.12V68.12a4.13,4.13,0,0,1-4.13,4.13H18.84a4.12,4.12,0,0,1-4.12-4.12V23.65a2.12,2.12,0,0,1,2.12-2.12Z" transform="translate(35.31 -2.47) rotate(40.3)"/><line class="cls-1" x1="30.83" y1="25.58" x2="36.14" y2="38.8"/><line class="cls-1" x1="23.58" y1="34.12" x2="28.42" y2="47.89"/><line class="cls-1" x1="16.17" y1="42.86" x2="21.78" y2="55.73"/><line class="cls-1" x1="9.59" y1="50.62" x2="15.19" y2="63.49"/><rect class="cls-1" x="49.16" y="47.66" width="13.52" height="28.52" rx="2.12" transform="translate(53.33 -21.47) rotate(40.3)"/><line class="cls-1" x1="58.2" y1="48.79" x2="64.2" y2="62.6"/><line class="cls-1" x1="50.95" y1="57.33" x2="56.49" y2="71.7"/><polyline class="cls-1" points="44.16 70.44 30.18 86.92 34.93 91.17 48.91 74.69"/></svg>