<svg id="Layer_1" data-name="Layer 1" xmlns="http://www.w3.org/2000/svg" viewBox="0 0 68.76 83.1"><defs><style>.cls-1{fill:none;stroke:#62a8e5;stroke-linecap:round;stroke-linejoin:round;stroke-width:3px;}</style></defs><path class="cls-1" d="M34.38,4,47.22,1.75a15.76,15.76,0,0,1,2.83-.25h0A16,16,0,0,1,64,9.38a25.84,25.84,0,0,1,3.23,13.07h0A27.74,27.74,0,0,1,63.6,36.22l-3.68,6.42a24.14,24.14,0,0,0-3.13,9.92,55.87,55.87,0,0,1-7.23,23l-2.44,4.25a3.5,3.5,0,0,1-3,1.76h0a3.51,3.51,0,0,1-3.5-3.51V71.38a28.77,28.77,0,0,0-1.8-10l-1-2.61a3.77,3.77,0,0,0-3.54-2.46h0a3.79,3.79,0,0,0-3.56,2.55l-1,2.82A28.89,28.89,0,0,0,28.18,71v7.08a3.51,3.51,0,0,1-3.5,3.51h0a3.49,3.49,0,0,1-3-1.76l-2.45-4.25a55.87,55.87,0,0,1-7.23-23,24,24,0,0,0-3.13-9.92L5.16,36.22A27.74,27.74,0,0,1,1.5,22.45h0A25.89,25.89,0,0,1,4.74,9.36a16,16,0,0,1,14-7.86h0a15.76,15.76,0,0,1,2.83.25L34.38,4"/><path class="cls-1" d="M31.29,11.54,23.52,9.83a9.52,9.52,0,0,0-9.31,3c-.16.19-.32.39-.48.61a10.69,10.69,0,0,0-1.92,6.31"/></svg>