<svg id="Layer_1" data-name="Layer 1" xmlns="http://www.w3.org/2000/svg" viewBox="0 0 78.02 100.44"><defs><style>.cls-1{fill:none;stroke:#62a8e5;stroke-linecap:round;stroke-linejoin:round;stroke-width:3px;}</style></defs><line class="cls-1" x1="46.63" y1="11.51" x2="37.9" y2="13.05"/><path class="cls-1" d="M37.9,13.05,23.69,10.54a18.41,18.41,0,0,0-3.14-.27h0A17.73,17.73,0,0,0,5.07,19,28.65,28.65,0,0,0,1.5,33.45h0A30.76,30.76,0,0,0,5.55,48.7l4.07,7.11a26.83,26.83,0,0,1,3.47,11,61.67,61.67,0,0,0,8,25.5L23.8,97a3.87,3.87,0,0,0,3.36,1.94h0A3.88,3.88,0,0,0,31,95.06V87.63a31.85,31.85,0,0,1,2-11.1l1.08-2.89A4.16,4.16,0,0,1,38,70.93h0A4.17,4.17,0,0,1,42,73.74L43,76.87a32,32,0,0,1,1.72,10.35v7.84a3.88,3.88,0,0,0,3.88,3.88h0A3.87,3.87,0,0,0,52,97l2.71-4.71a61.67,61.67,0,0,0,8-25.5,26.83,26.83,0,0,1,3.47-11l4.07-7.11a30.76,30.76,0,0,0,4-15.25h0a35,35,0,0,0-.25-4.21"/><path class="cls-1" d="M24.68,19.42A10.54,10.54,0,0,0,14.36,22.7c-.17.21-.35.43-.52.67a11.78,11.78,0,0,0-2.13,7"/><path class="cls-1" d="M76.52,21.66s-.63.26-1.73.61a43.09,43.09,0,0,1-4.57,1.19,54.89,54.89,0,0,1-5.47.86A6.42,6.42,0,0,0,59.05,30c-.22,2-.51,3.86-.86,5.5A42.53,42.53,0,0,1,57,40.06c-.36,1.12-.63,1.74-.63,1.74s-.26-.62-.62-1.74a42.53,42.53,0,0,1-1.19-4.55c-.35-1.66-.65-3.56-.87-5.59A6.41,6.41,0,0,0,48,24.22c-2-.22-4.2-.49-5.49-.76A41.37,41.37,0,0,1,38,22.27c-1.09-.35-1.73-.61-1.73-.61s.64-.28,1.73-.63a41.37,41.37,0,0,1,4.57-1.19A55.33,55.33,0,0,1,48,19a6.44,6.44,0,0,0,5.68-5.69c.22-2,.52-3.86.86-5.5a40.57,40.57,0,0,1,1.18-4.55c.36-1.11.62-1.74.62-1.74s.27.63.63,1.74a38.78,38.78,0,0,1,1.17,4.55,54.86,54.86,0,0,1,.88,5.61,6.41,6.41,0,0,0,5.69,5.69c2.05.21,4.2.48,5.48.75A43.09,43.09,0,0,1,74.79,21C75.89,21.38,76.52,21.66,76.52,21.66Z"/></svg>