<svg id="Layer_1" data-name="Layer 1" xmlns="http://www.w3.org/2000/svg" viewBox="0 0 68.76 83.1"><defs><style>.cls-1{fill:none;stroke:#62a8e5;stroke-linecap:round;stroke-linejoin:round;stroke-width:3px;}</style></defs><path class="cls-1" d="M34.38,4,47.22,1.75a15.76,15.76,0,0,1,2.83-.25h0A16,16,0,0,1,64,9.38a25.84,25.84,0,0,1,3.23,13.07h0A27.74,27.74,0,0,1,63.6,36.22l-3.68,6.42a24.14,24.14,0,0,0-3.13,9.92,55.87,55.87,0,0,1-7.23,23l-2.44,4.25a3.5,3.5,0,0,1-3,1.76h0a3.51,3.51,0,0,1-3.5-3.51V71.38a28.77,28.77,0,0,0-1.8-10l-1-2.61a3.75,3.75,0,0,0-3.53-2.46h0a3.79,3.79,0,0,0-3.56,2.55l-1,2.82A28.89,28.89,0,0,0,28.18,71v7.08a3.51,3.51,0,0,1-3.5,3.51h0a3.49,3.49,0,0,1-3-1.76l-2.45-4.25a55.87,55.87,0,0,1-7.23-23,24,24,0,0,0-3.13-9.92L5.16,36.22A27.74,27.74,0,0,1,1.5,22.45h0A25.89,25.89,0,0,1,4.74,9.36a16,16,0,0,1,14-7.86h0a15.76,15.76,0,0,1,2.83.25L34.38,4"/><path class="cls-1" d="M45.82,48.78A88.64,88.64,0,0,0,52.5,37.67c1.77-3.49,3.79-6.85,4.76-10.69,1.09-4.31.83-9.49-2.38-12.88-5.52-5.83-13.65-1.94-19.51,1.21h-.79c-5.86-3.15-14-7-19.51-1.21C11.86,17.49,11.6,22.67,12.69,27c1.14,4.52,3.75,8.39,5.67,12.57,1.28,2.77,2.75,5.45,4.29,8.09l.22.37a89.76,89.76,0,0,0,4.22-9.77c0-.12.07-.24.11-.36a7.42,7.42,0,0,1,14.16.19l.09.32a100.34,100.34,0,0,0,4.37,10.39Z"/><path class="cls-1" d="M22.65,47.64s-1.33,9.45,0,16c.37,1.79.63,3.25.82,4.42"/><path class="cls-1" d="M46.18,48.27c.27,2.21,1,9.82-.08,15.32-.36,1.8-.62,3.26-.82,4.43"/></svg>