<svg id="Layer_1" data-name="Layer 1" xmlns="http://www.w3.org/2000/svg" viewBox="0 0 84.14 83.76"><defs><style>.cls-1{fill:none;stroke:#62a8e5;stroke-linecap:round;stroke-linejoin:round;stroke-width:3px;}</style></defs><path class="cls-1" d="M34.38,4.67,21.54,2.41a15.76,15.76,0,0,0-2.83-.25h0A16,16,0,0,0,4.74,10,25.89,25.89,0,0,0,1.5,23.11h0A27.74,27.74,0,0,0,5.16,36.88L8.83,43.3A24,24,0,0,1,12,53.22a55.87,55.87,0,0,0,7.23,23l2.45,4.25a3.49,3.49,0,0,0,3,1.76h0a3.51,3.51,0,0,0,3.5-3.51V71.67a28.89,28.89,0,0,1,1.56-9.35l1-2.82A3.79,3.79,0,0,1,34.27,57h0a3.75,3.75,0,0,1,3.53,2.46l1,2.61a28.77,28.77,0,0,1,1.8,10v6.71a3.51,3.51,0,0,0,3.5,3.51h0a3.5,3.5,0,0,0,3-1.76l2.44-4.25a54.62,54.62,0,0,0,3.78-8"/><path class="cls-1" d="M34.38,4.67,47.22,2.41a15.76,15.76,0,0,1,2.83-.25h0a16.48,16.48,0,0,1,3.85.45"/><path class="cls-1" d="M31.29,12.2l-7.77-1.71a9.52,9.52,0,0,0-9.31,3c-.16.19-.32.39-.48.61a10.69,10.69,0,0,0-1.92,6.31"/><path class="cls-1" d="M61.37,1.5C57.3,7.21,40.09,32.07,40.09,42.57a21.28,21.28,0,1,0,42.55,0C82.64,32.07,65.42,7.21,61.37,1.5ZM73.28,44.32h-9v8.76H58.45V44.32h-9V38.5h9V29.25h5.82V38.5h9Z"/><polygon class="cls-1" points="73.28 38.5 73.28 44.32 64.27 44.32 64.27 53.08 58.45 53.08 58.45 44.32 49.44 44.32 49.44 38.5 58.45 38.5 58.45 29.25 64.27 29.25 64.27 38.5 73.28 38.5"/><polygon class="cls-1" points="73.28 38.5 73.28 44.32 64.27 44.32 64.27 53.08 58.45 53.08 58.45 44.32 49.44 44.32 49.44 38.5 58.45 38.5 58.45 29.25 64.27 29.25 64.27 38.5 73.28 38.5"/></svg>