<?xml version="1.0" encoding="utf-8"?>
<!-- Generator: Adobe Illustrator 24.0.2, SVG Export Plug-In . SVG Version: 6.00 Build 0)  -->
<svg version="1.1" id="Layer_1" xmlns="http://www.w3.org/2000/svg" xmlns:xlink="http://www.w3.org/1999/xlink" x="0px" y="0px"
	 viewBox="0 0 1000 630.5" style="enable-background:new 0 0 1000 630.5;" xml:space="preserve">
<style type="text/css">
	.st0{fill:#FFFFFF;}
</style>
<g>
	<g>
		<g>
			<path class="st0" d="M923.4,256.5c0.8-37.9-4.9-73.1-10.5-110.1c-6.7-29.5-27.4-81.9-61.9-84.9c-27.3-1.1-50.7,17.4-70.4,34.3
				c-18.8,17.2-38.7,33.4-60.3,47.1c-23.5,15.1-49.2,27-75.8,35.4c-13.8,5.2-31.4,4.5-41.2-8c-5.9-6.1-9.2-15.9-0.5-21.4
				c11.7-8.2,26.8-8.1,40.2-12.1c16.3-4,31.7-10.9,46.2-19.5c21.9-13.4,41.8-29.8,61.2-46.5c45-43.3,98.2-75.7,153-26.3
				c14.1,13.1,24.3,29.6,30,48.2c3.5,10.8,8.7,21,11.2,32.1c19.7,64.3,23.3,133,11.9,199.1c-7.2,39.2-20,77.4-35.7,114.1
				c-10.5,25.3-19.6,51.3-33.8,74.8c-7.4,11.9-14,24.7-25.2,33.6c-7.2,5.4-16.4,1.8-18.3-7c-0.5-2.5,0.1-5,1.2-7.1
				c2.9-5.6,5.1-11.5,7.8-17.2c18.3-43,37.5-86,51.6-130.6C915.9,343.5,923.9,299,923.4,256.5z"/>
		</g>
		<g>
			<path class="st0" d="M648.2,99.8c-1.5,0.7-3.3,0.6-4.8-0.2c-11.7-6.6-24.3-11.4-36.6-16.7c-28.8-11.6-74.3-24.7-93,9.2
				c-14.9,29.5-18.9,63.3-21.3,95.9c-0.5,12.1-2.1,24.1-1.9,36.2c-0.8,15.9,3.3,39.9-19.3,40.5c-11.5,1.3-20.7-12.1-18.3-21.7
				c1.8-13.3,2.6-27,3.8-40.5c2.8-27,5.9-53.9,10.9-80.6c4.7-36.8,15.8-65.5,51.7-81.8c42.9-19.3,92.4-1.8,132.2,17.6
				c12.8,7,25.7,14.1,37.5,22.9c0.6,0.4,0.5,1.4-0.2,1.7L648.2,99.8z"/>
		</g>
		<g>
			<path class="st0" d="M814,231.3c0.1-0.2,0-0.4-0.2-0.4h-6.6c-1.8,0.1-2.4,0.1-2.5-2.5c-0.2-3.7-0.8-4.2,2.1-4.3
				c5.2-0.2,10.4-0.4,15.5-1.1c3.2-0.4,2.7-0.1,3,2.6c0.5,3.9,0.8,4.4-1.7,4.7c-2.3,0.4-2.5,0.2-3.9,0.4c-0.4,0.1-0.9,0.1-1.3,0.1
				c-1.3,0-2,0.2-2.6,2.8c-1.2,6.7-4.3,12.7-7.1,18.8c-3.1,6.8-7,13.1-11.4,19.1c-6.7,9.2-14.6,17.2-23.6,24.2
				c-5.5,4.3-11.4,7.9-17.5,11.1c-4.3,2.3-9.1,3.9-13.7,5.8c-7.8,3.2-16.2,4.4-24.2,6.6c-6.6,0.7,1.5-0.2-6,0.7c-1,0.1-2,0.1-3,0.2
				c-6,0.3-11.5,0-17.2-0.2c-7.1-0.2-14-1.9-20.8-3.7c-7.3-1.9-14.3-4.6-21.2-7.5c-11.8-4.9-21.9-12.3-31-20.9
				c-7.4-6.9-13.8-14.7-18.6-23.7c-3.9-7.2-8-14.4-10.5-22.2c-1-3.7-2-2.8-4.1-2.6c-3.7,0.4-3.5,0.2-3.6-2.4
				c-0.1-2.9-0.9-3.1,3.2-3.3c4.5-0.3,8.9-0.5,13.4-0.6c3.3-0.1,2.8-0.3,2.8,2.5c0,2.1,0.4,2.1-2.9,2.2c-2.8,0.2-3.8-0.1-4.1,0.9
				c-0.8,1.9,0,3.5,1.1,5.1c7.6,11.1,17,20.3,28.2,27.9c6.3,4.3,12.8,8.3,19.7,10.9c8.8,3.3,17.7,6.6,27.2,7.5
				c8.1,0.8,15.9,2.1,24.3,2.3c7.4,0.5,14.4,0.3,21.7-0.7c4.3-0.6,9.2-1.8,13.4-2.8c4.6-1,9.1-2.4,13.6-3.8c6.4-2,12.6-4.4,18.5-7.5
				c6.4-3.3,12.7-6.7,18.4-11.1c5.7-4.5,11.6-8.9,16.6-14.2c5.3-5.6,11.9-13,16-19.6L814,231.3z"/>
		</g>
	</g>
	<g>
		<path class="st0" d="M129.6,484.1c3.9,1.1,8.4,1.8,13.7,1.8c30.3,0,31.2-27.1,44-27.1c6.2,0,8.9,3.6,8.9,8.2
			c0,8.4-5.2,21.4-8,27.8c-3.9,9.3-6.6,13.9-13.7,13.9c-5.7,0-8.9-5.9-9.6-6.8c-2.3,0.7-14.4,6.2-29.9,6.2c-13,0-23.2-5.5-36-5.5
			c-11.4,0-17.8,5.9-30.8,5.9c-6.2,0-9.1-4.1-9.1-7.7c0-3,0.5-6.6,4.3-13.2L126,380.4c-4.1-1.6-11.2-3-16.6-3
			c-23.5,0-25.5,23-38.5,23c-4.6,0-8.2-2.5-8.2-7.7c-0.2-4.6,2.5-10.5,5.9-17.8c6.6-14.1,9.8-18.2,16.4-18.2c5.5,0,8.7,3.9,10,5.2
			c3.6-0.9,11.2-4.8,23.9-4.8c13.2,0,22.1,5.9,34.2,5.9c9.6,0,23-5.7,29.4-5.7c6.8,0,9.3,4.6,9.3,8.2c0,4.1-1.1,8.9-7.1,19.6
			L129.6,484.1z"/>
		<path class="st0" d="M354.3,487.3c5.5,0.2,11.2,3.9,11.2,10.9c0,5-2.3,8-3.6,9.6h-74.8c-1.4-1.6-3.6-4.6-3.6-9.6
			c0-4.8,3.4-9.8,10.3-10.7l-5.7-16h-46.7l-3.2,8c-1.4,3.4-2.5,5.9-3,7.7c7.7,0.5,11.9,4.6,11.9,10.9c0,5-2.3,8-3.6,9.6h-45.1
			c-1.6-1.6-3.9-4.6-3.9-8.9c0-7.1,4.3-11.6,13.2-11.6h2.3c1.4-2.7,4.1-8.7,9.8-22.3l35.6-86.4h-3c-5.7-0.5-10.7-4.3-10.7-10.9
			c0-5,2.3-8,3.9-9.6h56.7L354.3,487.3z M265.9,410.1h-0.2l-16.2,40.8h31L265.9,410.1z"/>
		<path class="st0" d="M496.3,358.1c1.6,1.6,3.9,4.6,3.9,9.6c0,6.6-5,10.9-10.7,10.9h-3.4c-3,4.6-8.9,13.7-16.4,26.9l-21,35.8v46
			c5.7,0,10.7,4.3,10.7,10.9c0,5-2.3,8-3.9,9.6h-67.9c-1.4-1.6-3.6-4.6-3.6-9.6c0-6.6,5-10.9,10.7-10.9v-39.4l-43.5-69.3
			c-7.1-0.2-11.6-4.6-11.6-10.9c0-5,2.3-8,3.6-9.6h77.3c1.4,1.6,3.6,4.6,3.6,9.6c0,6.4-4.6,10.7-10.7,10.9l23.9,39.4l17.3-29.6
			c1.8-3.2,4.1-7.1,5.5-9.8h-0.9c-5.9,0-10.7-4.3-10.7-10.9c0-5,2.3-8,3.6-9.6H496.3z"/>
		<path class="st0" d="M635.3,487.3c5.5,0.2,11.2,3.9,11.2,10.9c0,5-2.3,8-3.6,9.6h-74.8c-1.4-1.6-3.6-4.6-3.6-9.6
			c0-4.8,3.4-9.8,10.3-10.7l-5.7-16h-46.7l-3.2,8c-1.4,3.4-2.5,5.9-3,7.7c7.7,0.5,11.9,4.6,11.9,10.9c0,5-2.3,8-3.6,9.6h-45.1
			c-1.6-1.6-3.9-4.6-3.9-8.9c0-7.1,4.3-11.6,13.2-11.6h2.3c1.4-2.7,4.1-8.7,9.8-22.3l35.6-86.4h-3c-5.7-0.5-10.7-4.3-10.7-10.9
			c0-5,2.3-8,3.9-9.6h56.7L635.3,487.3z M546.9,410.1h-0.2l-16.2,40.8h31L546.9,410.1z"/>
		<path class="st0" d="M797.6,358.1c1.4,1.6,3.6,4.6,3.6,9.6c0,6.6-4.8,10.9-9.6,10.9c-0.5,6.4-1.1,26.7-1.1,54v75.2h-41.7
			l-67.7-84.6h-0.5v19.1c0,23,0.5,36.7,0.9,44.9h2.5c7.7,0,12.5,4.3,12.5,10.9c0,5-2.3,8-3.6,9.6h-40.1c-1.6-1.6-3.9-4.6-3.9-9.6
			c0-6.6,5-10.9,10-10.9c0.2-5.9,0.7-21,0.7-53.6v-54.9l-0.9-0.2c-5.7-1.4-9.8-4.3-9.8-10.9c0-5,2.3-8,3.9-9.6h52.9l63.6,80.5h0.5
			v-14.8c0-23.7-0.5-36.9-0.9-45.1h-1.4c-7.7,0-12.5-4.3-12.5-10.9c0-5,2.3-8,3.6-9.6H797.6z"/>
	</g>
	<g>
		<path class="st0" d="M94.6,563c0,13.8-8.6,19.1-20,19.1c-9.2,0-14.5-0.1-16.2-0.3c-0.2-0.3-0.7-0.9-0.7-1.9c0-1.5,0.9-2.3,2.2-2.3
			h1.3V549h-1.3c-1.3,0-2.2-0.8-2.2-2.3c0-1,0.5-1.6,0.7-1.9c1.5-0.1,7.6-0.3,16.2-0.3C85,544.6,94.6,549.2,94.6,563z M85,563.3
			c0-11.1-4.4-14.9-11.5-14.9c-1,0-2.1,0.1-3.1,0.2V578c0.8,0.1,1.7,0.1,2.5,0.1C80.4,578.1,85,573.6,85,563.3z"/>
		<path class="st0" d="M127.4,574c0,1.5-1.1,3.6-2.6,7c-0.6,1.3-1.2,2-2.2,2s-1.6-0.6-2.4-1.2H98.7c-0.2-0.3-0.7-0.9-0.7-1.9
			c0-1.5,0.9-2.3,2.2-2.3h1.3V549h-1.3c-1.3,0-2.2-0.8-2.2-2.3c0-1,0.5-1.6,0.7-1.9h20.9c0.7-0.4,1.3-1.2,2.5-1.2
			c1.6,0,2.1,1.7,2.6,3.3l1.2,3.3c0.4,1.1,0.7,2,0.7,2.9c0,1-0.7,1.6-1.8,1.6c-1.2,0-1.7-1-2.7-2.6c-1.2-2-2-3.2-4.2-3.2h-7.4v11.5
			h6.9c0.3-0.8,0.6-2.1,2-2.1c0.7,0,1.3,0.4,1.9,1.9c0.8,2.1,1.9,4.5,1.9,5.8c0,0.9-0.7,1.5-1.6,1.5c-0.8,0-1.3-0.3-2-1.3
			s-1.2-1.9-3.1-1.9h-5.9v13.5h6.9c2.9,0,4-1.3,5.2-3c1.2-1.7,1.9-2.5,2.9-2.5C126.5,572.2,127.4,572.8,127.4,574z"/>
		<path class="st0" d="M168,544.9c0.2,0.2,0.7,0.8,0.7,1.9c0,1.5-0.8,2.3-2.1,2.3h-1.4c-0.1,1.3-0.2,5.3-0.2,11.2v21.5h-7.1
			l-18.4-25.3h-0.1v11.6c0,4.7,0.1,8.1,0.2,9.5h1.7c1.6,0,2.5,0.8,2.5,2.3c0,1-0.4,1.6-0.7,1.9h-11c-0.2-0.3-0.7-0.9-0.7-1.9
			c0-1.5,0.8-2.3,2.1-2.3h1.4c0.1-1.2,0.2-4.6,0.2-11.2V549h-1.5c-1.3-0.2-2.1-0.8-2.1-2.3c0-1,0.4-1.6,0.7-1.9H143l17.7,24.5h0.1
			v-10.8c0-4.8-0.1-8.1-0.2-9.5h-1.6c-1.6,0-2.5-0.8-2.5-2.3c0-1,0.5-1.6,0.7-1.9H168z"/>
		<path class="st0" d="M204.1,550.5c0.6,1.2,0.8,1.9,0.8,2.7c-0.1,1-1,1.6-2,1.6c-1.3,0-2-1-2.9-2.3c-1.6-2.3-2.4-3.3-4.5-3.3
			c-0.7,0-1.7,0-3,0.1v28.4h1.6c1.4,0,2.2,0.8,2.2,2.3c0,1-0.4,1.6-0.7,1.9h-15.4c-0.2-0.3-0.7-0.9-0.7-1.9c0-1.5,0.8-2.3,2.2-2.3
			h1.6v-28.4c-1.2-0.1-2.3-0.1-2.9-0.1c-2.2,0-3,1-4.6,3.3c-1,1.3-1.6,2.3-2.9,2.3c-1,0-1.9-0.6-2-1.6c-0.1-0.8,0.2-1.5,0.8-2.7
			l1.3-2.7c1.6-3.3,2.2-4,3.3-4c1.1,0,1.7,0.8,2.5,1.5h18c0.7-0.7,1.4-1.5,2.4-1.5c1.2,0,1.7,0.7,3.4,4L204.1,550.5z"/>
		<path class="st0" d="M238.6,577.6c1.3,0,2.3,0.7,2.3,2.3c0,1-0.4,1.6-0.7,1.9h-16.1c-0.2-0.3-0.7-0.9-0.7-1.9
			c0-1.3,0.8-2.3,2.4-2.3h1.5l-2.2-6.3h-12.9l-1.1,2.6c-0.7,1.9-1.2,3.1-1.3,3.8h1.5c1.7,0,2.6,0.8,2.6,2.3c0,1-0.5,1.6-0.7,1.9
			h-11.9c-0.2-0.3-0.7-0.9-0.7-1.8c0-1.5,0.8-2.4,2.7-2.4h1.4c0.4-0.8,1.3-2.8,2.6-6.1l9.3-22.5h-2.2c-1.3-0.1-2.2-0.8-2.2-2.3
			c0-1,0.4-1.6,0.7-1.9h12.2l12.4,32.7H238.6z M219.3,554L219.3,554l-5.4,13.2h9.9L219.3,554z"/>
		<path class="st0" d="M270.2,573.2c0,1.5-1.1,4.2-2.6,7.7c-0.7,1.5-1.2,2.1-2.3,2.1s-1.8-0.8-2.4-1.2h-20c-0.2-0.3-0.7-0.9-0.7-1.9
			c0-1.5,0.9-2.3,2.2-2.3h1.3V549h-1.3c-1.3,0-2.2-0.8-2.2-2.3c0-1,0.5-1.6,0.7-1.9h15c0.2,0.2,0.7,0.8,0.7,1.9
			c0,1.5-0.9,2.3-2.2,2.3h-1.5v28.6h5.6c2.9,0,4-2,5.6-4.2c1-1.3,1.4-2,2.5-2C269.4,571.4,270.2,571.9,270.2,573.2z"/>
		<path class="st0" d="M312.6,546.1c0.6-1,1.2-1.3,2-1.3c1.3,0,1.9,1,2.2,2.9c0.4,2.2,1.1,5.4,1.1,6.9c0,1.2-0.8,1.8-2,1.8
			c-1.2,0-1.9-0.9-2.5-2.2c-1.8-3.8-4.5-6.2-7.6-6.2c-6.2,0-9.3,6.5-9.3,14.4c0,9,2.9,16.1,9.4,16.1c3.8,0,5.8-2.6,7.4-4.5
			c1.1-1.2,1.9-2.1,3-2.1c1.4,0,2.1,1,2.1,2.2c0,3.8-5.1,8.8-13.6,8.8c-9.8,0-18.4-4.9-18.4-19.5c0-12.4,8.4-19.3,18-19.3
			C308.3,544,310.9,545,312.6,546.1z"/>
		<path class="st0" d="M320.8,563.6c0-14.2,10.7-19.7,18.8-19.7c8.3,0,18.7,4.9,18.7,19.1c0,14.3-10.3,19.8-18.7,19.8
			C331.3,582.8,320.8,577.9,320.8,563.6z M348.1,563.3c0-10.6-3.8-15.5-8.6-15.5c-4.7,0-8.5,4.9-8.5,15.5c0,11.1,3.8,15.1,8.5,15.1
			C344.3,578.4,348.1,573.7,348.1,563.3z"/>
		<path class="st0" d="M388.5,546.8c0.4,1.7,1.3,5.1,1.3,6.3c0,1.3-0.8,2.1-2,2.1c-1.2,0-1.6-0.7-2.4-1.9c-1.6-2.7-4.2-5.6-8.4-5.6
			c-3.4,0-5.4,2-5.4,4.8c0,3.6,4,4.4,8.9,5.8c5.2,1.5,11.1,3.6,11.1,11.6c0,9.4-7.9,12.9-15.2,12.9c-9.7,0-14.4-4.9-14.4-8.9
			c0-1.8,1-2.8,2.5-2.8c1.8,0,2.8,1.3,4.3,3c1.5,1.9,4.1,4.4,8.1,4.4c3.7,0,6.2-2.2,6.2-5.5c0-4.2-4.4-5.1-8.8-6.3
			c-5.6-1.5-11.7-3.4-11.7-11c0-7,5.8-11.6,14-11.6c2.8,0,5.1,0.6,7.6,1.9c0.4-0.6,0.9-1.4,2.1-1.4
			C387.6,544.5,388,545.4,388.5,546.8z"/>
		<path class="st0" d="M436.6,577.6c1.3,0,2.2,0.8,2.2,2.3c0,1-0.4,1.6-0.7,1.9h-14.8c-0.2-0.3-0.7-0.9-0.7-1.9
			c0-1.5,0.8-2.3,2.2-2.3h1.4v-22.1h-0.1l-11,16.3L404,555.6h-0.1V568c0,4.8,0.1,8.3,0.2,9.6h1.7c1.6,0,2.4,0.8,2.4,2.3
			c0,1-0.4,1.6-0.7,1.9h-11c-0.2-0.3-0.7-0.9-0.7-1.9c0-1.5,0.9-2.3,2.1-2.3h1.4c0.1-1.1,0.2-4.5,0.2-11.2v-17.3l-1.5-0.1
			c-1.3-0.2-2.1-0.8-2.1-2.3c0-1,0.4-1.6,0.7-1.9h10.6l10.7,15.5h0.1l10.8-15.5h9.3c0.3,0.2,0.7,0.8,0.7,1.9c0,1.5-0.8,2.1-2.1,2.3
			l-1.5,0.1v28.5H436.6z"/>
		<path class="st0" d="M472.6,574c0,1.5-1.1,3.6-2.6,7c-0.6,1.3-1.2,2-2.2,2s-1.6-0.6-2.4-1.2h-21.5c-0.2-0.3-0.7-0.9-0.7-1.9
			c0-1.5,0.9-2.3,2.2-2.3h1.3V549h-1.3c-1.3,0-2.2-0.8-2.2-2.3c0-1,0.5-1.6,0.7-1.9h20.9c0.7-0.4,1.3-1.2,2.5-1.2
			c1.6,0,2.1,1.7,2.6,3.3l1.2,3.3c0.4,1.1,0.7,2,0.7,2.9c0,1-0.7,1.6-1.8,1.6c-1.2,0-1.7-1-2.7-2.6c-1.2-2-2-3.2-4.2-3.2h-7.4v11.5
			h6.9c0.3-0.8,0.6-2.1,2-2.1c0.7,0,1.3,0.4,1.9,1.9c0.8,2.1,1.9,4.5,1.9,5.8c0,0.9-0.7,1.5-1.6,1.5c-0.8,0-1.3-0.3-2-1.3
			s-1.2-1.9-3.1-1.9h-5.9v13.5h6.9c2.9,0,4-1.3,5.2-3c1.2-1.7,1.9-2.5,2.9-2.5C471.7,572.2,472.6,572.8,472.6,574z"/>
		<path class="st0" d="M507.9,550.5c0.6,1.2,0.8,1.9,0.8,2.7c-0.1,1-1,1.6-2,1.6c-1.3,0-2-1-2.9-2.3c-1.6-2.3-2.4-3.3-4.5-3.3
			c-0.7,0-1.7,0-3,0.1v28.4h1.6c1.4,0,2.2,0.8,2.2,2.3c0,1-0.4,1.6-0.7,1.9h-15.4c-0.2-0.3-0.7-0.9-0.7-1.9c0-1.5,0.8-2.3,2.2-2.3
			h1.6v-28.4c-1.2-0.1-2.3-0.1-2.9-0.1c-2.2,0-3,1-4.6,3.3c-1,1.3-1.6,2.3-2.9,2.3c-1,0-1.9-0.6-2-1.6c-0.1-0.8,0.2-1.5,0.8-2.7
			l1.3-2.7c1.6-3.3,2.2-4,3.3-4c1.1,0,1.7,0.8,2.5,1.5h18c0.7-0.7,1.4-1.5,2.4-1.5c1.2,0,1.7,0.7,3.4,4L507.9,550.5z"/>
		<path class="st0" d="M525.2,577.6c1.3,0,2.2,0.8,2.2,2.3c0,1-0.4,1.6-0.7,1.9h-14.8c-0.2-0.3-0.7-0.9-0.7-1.9
			c0-1.5,0.9-2.3,2.2-2.3h1.3V549h-1.3c-1.3,0-2.2-0.8-2.2-2.3c0-1,0.5-1.6,0.7-1.9h14.8c0.2,0.2,0.7,0.8,0.7,1.9
			c0,1.5-0.8,2.3-2.2,2.3h-1.4v28.6H525.2z"/>
		<path class="st0" d="M556.7,546.1c0.6-1,1.2-1.3,2-1.3c1.3,0,1.9,1,2.2,2.9c0.4,2.2,1.1,5.4,1.1,6.9c0,1.2-0.8,1.8-2,1.8
			c-1.2,0-1.9-0.9-2.5-2.2c-1.8-3.8-4.5-6.2-7.6-6.2c-6.2,0-9.3,6.5-9.3,14.4c0,9,2.9,16.1,9.4,16.1c3.8,0,5.8-2.6,7.4-4.5
			c1.1-1.2,1.9-2.1,3-2.1c1.4,0,2.1,1,2.1,2.2c0,3.8-5.1,8.8-13.6,8.8c-9.8,0-18.4-4.9-18.4-19.5c0-12.4,8.4-19.3,18-19.3
			C552.5,544,555,545,556.7,546.1z"/>
		<path class="st0" d="M605.7,546.1c0.6-1,1.2-1.3,2-1.3c1.3,0,1.9,1,2.2,2.9c0.4,2.2,1.1,5.4,1.1,6.9c0,1.2-0.8,1.8-2,1.8
			c-1.2,0-1.9-0.9-2.5-2.2c-1.8-3.8-4.5-6.2-7.6-6.2c-6.2,0-9.3,6.5-9.3,14.4c0,9,2.9,16.1,9.4,16.1c3.8,0,5.8-2.6,7.4-4.5
			c1.1-1.2,1.9-2.1,3-2.1c1.4,0,2.1,1,2.1,2.2c0,3.8-5.1,8.8-13.6,8.8c-9.8,0-18.4-4.9-18.4-19.5c0-12.4,8.4-19.3,18-19.3
			C601.4,544,604,545,605.7,546.1z"/>
		<path class="st0" d="M643.3,573.2c0,1.5-1.1,4.2-2.6,7.7c-0.7,1.5-1.2,2.1-2.3,2.1c-1.1,0-1.8-0.8-2.4-1.2h-20
			c-0.2-0.3-0.7-0.9-0.7-1.9c0-1.5,0.9-2.3,2.2-2.3h1.3V549h-1.3c-1.3,0-2.2-0.8-2.2-2.3c0-1,0.5-1.6,0.7-1.9h15
			c0.2,0.2,0.7,0.8,0.7,1.9c0,1.5-0.9,2.3-2.2,2.3h-1.5v28.6h5.6c2.9,0,4-2,5.6-4.2c1-1.3,1.4-2,2.5-2
			C642.5,571.4,643.3,571.9,643.3,573.2z"/>
		<path class="st0" d="M660.2,577.6c1.3,0,2.2,0.8,2.2,2.3c0,1-0.4,1.6-0.7,1.9h-14.8c-0.2-0.3-0.7-0.9-0.7-1.9
			c0-1.5,0.9-2.3,2.2-2.3h1.3V549h-1.3c-1.3,0-2.2-0.8-2.2-2.3c0-1,0.5-1.6,0.7-1.9h14.8c0.2,0.2,0.7,0.8,0.7,1.9
			c0,1.5-0.8,2.3-2.2,2.3h-1.4v28.6H660.2z"/>
		<path class="st0" d="M703.2,544.9c0.2,0.2,0.7,0.8,0.7,1.9c0,1.5-0.8,2.3-2.1,2.3h-1.4c-0.1,1.3-0.2,5.3-0.2,11.2v21.5h-7.1
			l-18.4-25.3h-0.1v11.6c0,4.7,0.1,8.1,0.2,9.5h1.7c1.6,0,2.5,0.8,2.5,2.3c0,1-0.4,1.6-0.7,1.9h-11c-0.2-0.3-0.7-0.9-0.7-1.9
			c0-1.5,0.8-2.3,2.1-2.3h1.4c0.1-1.2,0.2-4.6,0.2-11.2V549h-1.5c-1.3-0.2-2.1-0.8-2.1-2.3c0-1,0.4-1.6,0.7-1.9h10.6l17.7,24.5h0.1
			v-10.8c0-4.8-0.1-8.1-0.2-9.5h-1.6c-1.6,0-2.5-0.8-2.5-2.3c0-1,0.5-1.6,0.7-1.9H703.2z"/>
		<path class="st0" d="M722,577.6c1.3,0,2.2,0.8,2.2,2.3c0,1-0.4,1.6-0.7,1.9h-14.8c-0.2-0.3-0.7-0.9-0.7-1.9c0-1.5,0.9-2.3,2.2-2.3
			h1.3V549h-1.3c-1.3,0-2.2-0.8-2.2-2.3c0-1,0.5-1.6,0.7-1.9h14.8c0.2,0.2,0.7,0.8,0.7,1.9c0,1.5-0.8,2.3-2.2,2.3h-1.4v28.6H722z"/>
		<path class="st0" d="M753.5,546.1c0.6-1,1.2-1.3,2-1.3c1.3,0,1.9,1,2.2,2.9c0.4,2.2,1.1,5.4,1.1,6.9c0,1.2-0.8,1.8-2,1.8
			c-1.2,0-1.9-0.9-2.5-2.2c-1.8-3.8-4.5-6.2-7.6-6.2c-6.2,0-9.3,6.5-9.3,14.4c0,9,2.9,16.1,9.4,16.1c3.8,0,5.8-2.6,7.4-4.5
			c1.1-1.2,1.9-2.1,3-2.1c1.4,0,2.1,1,2.1,2.2c0,3.8-5.1,8.8-13.6,8.8c-9.8,0-18.4-4.9-18.4-19.5c0-12.4,8.4-19.3,18-19.3
			C749.3,544,751.8,545,753.5,546.1z"/>
		<path class="st0" d="M789.4,546.8c0.4,1.7,1.3,5.1,1.3,6.3c0,1.3-0.8,2.1-2,2.1c-1.2,0-1.6-0.7-2.4-1.9c-1.6-2.7-4.2-5.6-8.4-5.6
			c-3.4,0-5.4,2-5.4,4.8c0,3.6,4,4.4,8.9,5.8c5.2,1.5,11.1,3.6,11.1,11.6c0,9.4-7.9,12.9-15.2,12.9c-9.7,0-14.4-4.9-14.4-8.9
			c0-1.8,1-2.8,2.5-2.8c1.8,0,2.8,1.3,4.3,3c1.5,1.9,4.1,4.4,8.1,4.4c3.7,0,6.2-2.2,6.2-5.5c0-4.2-4.4-5.1-8.8-6.3
			c-5.6-1.5-11.7-3.4-11.7-11c0-7,5.8-11.6,14-11.6c2.8,0,5.1,0.6,7.6,1.9c0.4-0.6,0.9-1.4,2.1-1.4
			C788.5,544.5,789,545.4,789.4,546.8z"/>
	</g>
</g>
</svg>
